# xmcd
#
# Track frame offsets:
#	150
#	12399
#	27992
#	37088
#	50030
#	61411
#	74991
#	88939
#	100379
#	112906
#	125079
#
# Disc length: 1798 seconds
#
# Revision: 1
# Processed by: cddbd v1.5.2PL0 Copyright (c) Steve Scherf et al.
# Submitted via: audiograbber 1.83.01
#
DISCID=a807040b
DTITLE=Andy Bowes - Most Requested
DYEAR=2008
DGENRE=Country
TTITLE0=I Don't Hurt Any More
TTITLE1=YoHo Valley
TTITLE2=She Taught Me to Yodel
TTITLE3=Waltz Across Texas
TTITLE4=Cattle Call
TTITLE5=Crazy Arms
TTITLE6=Swiss Moonlight Lullaby
TTITLE7=Cowgirl Sweetheart
TTITLE8=Rolling Stone From Texas
TTITLE9=Delighted in You
TTITLE10=My Old Lasso
EXTD=
EXTT0=
EXTT1=
EXTT2=
EXTT3=
EXTT4=
EXTT5=
EXTT6=
EXTT7=
EXTT8=
EXTT9=
EXTT10=
PLAYORDER=
